<svg width="53" height="49" viewBox="0 0 53 49" fill="none" xmlns="http://www.w3.org/2000/svg">
<path d="M42.6866 37.8449C37.7711 37.8449 46.1791 37.8449 35.8308 37.8449C31.0448 37.8449 31.0448 37.8449 31.0448 43.4432C31.0448 46.0471 30.1393 48 26.5174 48C22.8955 48 21.9901 45.9169 21.9901 43.4432V28.9918C21.9901 27.5162 21.1104 24.5652 17.592 24.5652C14.0736 24.5652 13.194 27.5162 13.194 28.9918V43.4432L8.66667 48L4.1393 43.4432V28.9918C4.1393 28.9918 4.1393 25.0468 4.1393 20.399M42.6866 37.8449V48M42.6866 37.8449H52M42.6866 37.8449V24.5652M4.1393 20.399C4.1393 17.3595 4.1393 10.8948 4.1393 8.1608C4.1393 0.869963 4.1393 1.00016 11.2537 1.00016M4.1393 20.399H8.0199M4.1393 20.399H0M42.6866 24.5652V15.9724M42.6866 24.5652H33.6318M42.6866 24.5652C52 24.5652 52 24.5652 52 15.3214V1.00016H42.6866M32.3383 1.00016H28.7164M25.3532 1.00016H21.7313M18.3682 1.00016H14.7463M39.3234 1.00016H35.7015" stroke="white" stroke-width="0.5"/>
</svg>
